<svg width="14" height="14" viewBox="0 0 14 14" fill="none" xmlns="http://www.w3.org/2000/svg">
<path d="M9.88 3.48H10.68L12.3333 1.82667L12.92 2.41333L11.32 4.01333L11.3733 4.06667C11.7289 4.99111 11.8889 5.93333 11.8533 6.89333V7.53333H13.9333V8.38667H11.7467C11.5689 9.34667 11.2311 10.2178 10.7333 11V11.0533L12.7067 13.08L12.12 13.6667L10.2 11.7467L10.1467 11.8C9.72 12.2978 9.22222 12.6889 8.65333 12.9733C8.12 13.2222 7.55111 13.3467 6.94667 13.3467C6.34222 13.3467 5.75556 13.2044 5.18667 12.92C4.65333 12.6356 4.17333 12.2444 3.74667 11.7467L3.64 11.6933L1.77333 13.56L1.18667 12.9733L3.16 11L3.10667 10.9467C2.64444 10.2 2.34222 9.34667 2.2 8.38667H2.14667H0.0133333V7.53333H2.04V6.89333C2.04 5.93333 2.2 4.99111 2.52 4.06667L2.57333 4.01333L0.973333 2.41333L1.56 1.82667L3.21333 3.48H4.06667V2.89333C4.06667 2.11111 4.35111 1.43556 4.92 0.866667C5.48889 0.297778 6.16444 0.0133333 6.94667 0.0133333C7.76444 0.0133333 8.45778 0.297778 9.02667 0.866667C9.59556 1.43556 9.88 2.11111 9.88 2.89333V3.48ZM4.86667 3.48H9.02667V2.89333C9.02667 2.32444 8.81333 1.84444 8.38667 1.45333C7.99556 1.02667 7.51556 0.813333 6.94667 0.813333C6.37778 0.813333 5.88 1.02667 5.45333 1.45333C5.06222 1.84444 4.86667 2.32444 4.86667 2.89333V3.48ZM10.5733 4.33333H3.32V4.38667C3.03556 5.16889 2.89333 6.00444 2.89333 6.89333C2.89333 7.71111 3 8.47556 3.21333 9.18667C3.42667 9.86222 3.72889 10.4489 4.12 10.9467C4.51111 11.4444 4.95556 11.8356 5.45333 12.12C5.95111 12.3689 6.44889 12.4933 6.94667 12.4933C7.48 12.4933 7.97778 12.3689 8.44 12.12C8.93778 11.8356 9.38222 11.4444 9.77333 10.9467C10.1644 10.4489 10.4667 9.86222 10.68 9.18667C10.9289 8.47556 11.0533 7.71111 11.0533 6.89333C11.0533 6.00444 10.8933 5.16889 10.5733 4.38667V4.33333Z" fill="#C5C5C5"/>
</svg>
