<svg width="14" height="14" viewBox="0 0 14 14" fill="none" xmlns="http://www.w3.org/2000/svg">
<g clip-path="url(#clip0_2777_17820)">
<path fill-rule="evenodd" clip-rule="evenodd" d="M7.00001 1.4252C3.92102 1.4252 1.42501 3.92121 1.42501 7.0002C1.42501 10.0792 3.92102 12.5752 7.00001 12.5752C10.079 12.5752 12.575 10.0792 12.575 7.0002C12.575 3.92121 10.079 1.4252 7.00001 1.4252ZM0.325012 7.0002C0.325012 3.31369 3.31351 0.325195 7.00001 0.325195C10.6865 0.325195 13.675 3.31369 13.675 7.0002C13.675 10.6867 10.6865 13.6752 7.00001 13.6752C3.31351 13.6752 0.325012 10.6867 0.325012 7.0002ZM6.2222 7.0002L4.27777 5.05577L5.05559 4.27795L7.00001 6.22238L8.94444 4.27795L9.72225 5.05577L7.77783 7.0002L9.72225 8.94462L8.94444 9.72244L7.00001 7.77801L5.05559 9.72244L4.27777 8.94462L6.2222 7.0002Z" fill="#D4D7D6"/>
</g>
<defs>
<clipPath id="clip0_2777_17820">
<rect width="14" height="14" fill="white"/>
</clipPath>
</defs>
</svg>
