<svg width="14" height="16" viewBox="0 0 14 16" fill="none" xmlns="http://www.w3.org/2000/svg">
<path d="M12.28 7.73333C12.7778 8.19556 13.0267 8.76444 13.0267 9.44C13.0267 10.08 12.8133 10.6489 12.3867 11.1467C11.96 11.6089 11.4267 11.8756 10.7867 11.9467C10.1467 11.9822 9.56 11.8222 9.02667 11.4667C8.52889 11.0756 8.20889 10.56 8.06667 9.92C7.35556 9.88444 6.66222 9.68889 5.98667 9.33333C5.20444 8.94222 4.54667 8.37333 4.01333 7.62667V10.0267C4.40444 10.0978 4.76 10.2756 5.08 10.56C5.4 10.8089 5.63111 11.1111 5.77333 11.4667C5.95111 11.8222 6.02222 12.16 5.98667 12.48C5.98667 13.0133 5.84444 13.4933 5.56 13.92C5.31111 14.3111 4.93778 14.6133 4.44 14.8267C3.97778 15.0044 3.49778 15.04 3 14.9333C2.50222 14.8267 2.07556 14.5956 1.72 14.24C1.36444 13.8844 1.13333 13.4756 1.02667 13.0133C0.955556 12.5156 1.00889 12.0356 1.18667 11.5733C1.4 11.0756 1.70222 10.6844 2.09333 10.4C2.37778 10.2222 2.68 10.0978 3 10.0267V4.96C2.50222 4.85333 2.07556 4.62222 1.72 4.26667C1.36444 3.91111 1.13333 3.48444 1.02667 2.98667C0.955556 2.48889 1.00889 2.00889 1.18667 1.54667C1.4 1.08444 1.70222 0.71111 2.09333 0.426666C2.52 0.142222 2.98222 0 3.48 0C3.83556 0 4.17333 0.071111 4.49333 0.213333C5.13333 0.462222 5.57778 0.906666 5.82667 1.54667C5.96889 1.86667 6.04 2.20444 6.04 2.56C6.04 3.05778 5.89778 3.52 5.61333 3.94667C5.32889 4.33778 4.95556 4.64 4.49333 4.85333C4.35111 4.92444 4.20889 4.96 4.06667 4.96C4.17333 6.02667 4.6 6.93333 5.34667 7.68C6.09333 8.42667 7 8.85333 8.06667 8.96C8.10222 8.81778 8.13778 8.67556 8.17333 8.53333C8.38667 8.07111 8.70667 7.69778 9.13333 7.41333C9.63111 7.09333 10.1644 6.96889 10.7333 7.04C11.3378 7.07556 11.8533 7.30667 12.28 7.73333ZM4.06667 11.0933C3.78222 10.9867 3.49778 10.9689 3.21333 11.04C2.92889 11.0756 2.66222 11.2178 2.41333 11.4667C2.2 11.68 2.05778 11.9289 1.98667 12.2133C1.95111 12.4978 1.98667 12.7822 2.09333 13.0667C2.23556 13.3511 2.43111 13.5822 2.68 13.76C2.96444 13.9378 3.28444 14.0089 3.64 13.9733C3.99556 13.9378 4.29778 13.7956 4.54667 13.5467C4.79556 13.2978 4.93778 12.9956 4.97333 12.64C5.00889 12.2844 4.93778 11.9822 4.76 11.7333C4.58222 11.4489 4.35111 11.2356 4.06667 11.0933ZM3.48 4C3.87111 4 4.19111 3.89333 4.44 3.68C4.72444 3.43111 4.90222 3.12889 4.97333 2.77333C5.04444 2.41778 4.99111 2.09778 4.81333 1.81333C4.63556 1.49333 4.38667 1.28 4.06667 1.17333C3.78222 1.03111 3.49778 0.995556 3.21333 1.06667C2.92889 1.10222 2.66222 1.22667 2.41333 1.44C2.2 1.65333 2.05778 1.92 1.98667 2.24C1.95111 2.52444 1.98667 2.80889 2.09333 3.09333C2.23556 3.34222 2.43111 3.55556 2.68 3.73333C2.92889 3.91111 3.19556 4 3.48 4ZM11.5867 10.56C11.7644 10.3822 11.8889 10.1689 11.96 9.92C12.0311 9.67111 12.0311 9.44 11.96 9.22667C11.9244 8.97778 11.8178 8.76444 11.64 8.58667C11.4978 8.37333 11.3022 8.21333 11.0533 8.10667C10.8044 8 10.52 7.98222 10.2 8.05333C9.91556 8.08889 9.66667 8.21333 9.45333 8.42667C9.24 8.64 9.09778 8.90667 9.02667 9.22667C8.95556 9.51111 8.97333 9.77778 9.08 10.0267C9.18667 10.2756 9.32889 10.4889 9.50667 10.6667C9.72 10.8089 9.95111 10.9156 10.2 10.9867C10.4489 11.0222 10.6978 11.0044 10.9467 10.9333C11.1956 10.8622 11.4089 10.7378 11.5867 10.56Z" fill="#C5C5C5"/>
</svg>
