<svg width="18" height="18" viewBox="0 0 18 18" fill="none" xmlns="http://www.w3.org/2000/svg">
	<path fill-rule="evenodd" clip-rule="evenodd"
		d="M1.44799 0.106691C1.07886 -0.0779999 0.634192 -0.0169261 0.328528 0.260444C0.0228644 0.537813 -0.08098 0.974482 0.0671001 1.35976L2.62122 8.00505L0.0672847 14.6397C-0.0809869 15.0249 0.0226168 15.4616 0.32811 15.7391C0.633604 16.0166 1.07822 16.078 1.44744 15.8935L15.4464 8.89991C15.7853 8.73063 15.9994 8.38442 15.9995 8.00564C15.9996 7.62685 15.7857 7.28052 15.447 7.11103L1.44799 0.106691ZM4.37961 7.00533L2.85903 3.04907L10.7661 7.00533H4.37961ZM4.37923 9.00533L2.85994 12.9522L10.7602 9.00533H4.37923Z"
		fill="#0972D3" />
</svg>
	