<svg width="12" height="12" viewBox="0 0 12 12" fill="none" xmlns="http://www.w3.org/2000/svg">
<g clip-path="url(#clip0_2777_17999)">
<path fill-rule="evenodd" clip-rule="evenodd" d="M1.5 6C1.5 3.51472 3.51472 1.5 6 1.5C8.48528 1.5 10.5 3.51472 10.5 6C10.5 8.48528 8.48528 10.5 6 10.5C3.51472 10.5 1.5 8.48528 1.5 6ZM6 0C2.68629 0 0 2.68629 0 6C0 9.31371 2.68629 12 6 12C9.31371 12 12 9.31371 12 6C12 2.68629 9.31371 0 6 0ZM9.28033 4.78033L5.78033 8.28033L5.25 8.81066L4.71967 8.28033L2.96967 6.53033L4.03033 5.46967L5.25 6.68934L8.21967 3.71967L9.28033 4.78033Z" fill="#D4D7D6"/>
</g>
<defs>
<clipPath id="clip0_2777_17999">
<rect width="12" height="12" rx="6" fill="white"/>
</clipPath>
</defs>
</svg>
