<svg width="20" height="22" viewBox="0 0 20 22" fill="none" xmlns="http://www.w3.org/2000/svg">
<path d="M18.4266 4.77334L11.2333 0.62001C10.9066 0.426677 10.4666 0.333344 10.0333 0.333344C9.59994 0.333344 9.16661 0.426677 8.83327 0.62001L1.63994 4.77334C0.979941 5.15334 0.439941 6.08668 0.439941 6.84668V15.1533C0.439941 15.9133 0.979941 16.8467 1.63994 17.2267L8.83327 21.38C9.15994 21.5733 9.59994 21.6667 10.0333 21.6667C10.4666 21.6667 10.8999 21.5733 11.2333 21.38L18.4266 17.2267C19.0866 16.8467 19.6266 15.9133 19.6266 15.1533V6.84668C19.6266 6.08668 19.0866 5.15334 18.4266 4.77334ZM10.2266 19.66C10.2266 19.66 10.1333 19.68 10.0399 19.68C9.94661 19.68 9.87994 19.6667 9.85327 19.66L2.63994 15.4933C2.56661 15.4267 2.47327 15.26 2.45327 15.1667V6.83334C2.47327 6.74001 2.57327 6.57334 2.63994 6.50668L9.85327 2.34001C9.85327 2.34001 9.94661 2.32001 10.0399 2.32001C10.1333 2.32001 10.1999 2.33334 10.2266 2.34001L17.4399 6.50668C17.5133 6.57334 17.6066 6.74001 17.6266 6.83334V14.2267L12.0399 11V10.12C12.0399 9.94668 11.9466 9.79334 11.7999 9.70668L10.2799 8.82668C10.2066 8.78668 10.1199 8.76001 10.0399 8.76001C9.95994 8.76001 9.87327 8.78001 9.79994 8.82668L8.27994 9.70668C8.13327 9.79334 8.03994 9.95334 8.03994 10.12V11.8733C8.03994 12.0467 8.13327 12.2 8.27994 12.2867L9.79994 13.1667C9.87327 13.2067 9.95994 13.2333 10.0399 13.2333C10.1199 13.2333 10.2066 13.2133 10.2799 13.1667L11.0399 12.7267L16.6266 15.9533L10.2266 19.6467V19.66Z" fill="black"/>
</svg>
