<svg width="12" height="12" viewBox="0 0 12 12" fill="none" xmlns="http://www.w3.org/2000/svg">
	<path
		d="M0.86 0.603333H1.64V2.29333L2.24667 1.73C2.70889 1.23889 3.25778 0.921111 3.89333 0.776667C4.52889 0.603333 5.16444 0.603333 5.8 0.776667C6.43556 0.921111 6.98444 1.23889 7.44667 1.73C7.93778 2.19222 8.27 2.74111 8.44333 3.37667C8.61667 4.01222 8.61667 4.64778 8.44333 5.28333C8.27 5.91889 7.95222 6.48222 7.49 6.97333L3.24333 11.1767L2.68 10.6133L6.88333 6.36667C7.25889 6.02 7.51889 5.60111 7.66333 5.11C7.80778 4.59 7.80778 4.08444 7.66333 3.59333C7.51889 3.07333 7.25889 2.64 6.88333 2.29333C6.53667 1.91778 6.10333 1.67222 5.58333 1.55667C5.09222 1.41222 4.60111 1.41222 4.11 1.55667C3.61889 1.67222 3.18556 1.91778 2.81 2.29333L2.03 3.07333H4.11V3.85333H1.25L0.86 3.46333V0.603333Z"
		fill="#C5C5C5" />
</svg>
	