<svg width="12" height="12" viewBox="0 0 12 12" fill="none" xmlns="http://www.w3.org/2000/svg">
	<path fill-rule="evenodd" clip-rule="evenodd"
		d="M3.96994 7.0605L5.03044 6L4.06069 5.03025H7.21894C8.62519 5.03025 9.00019 6.44475 9.00019 7.28025C9.00019 7.896 8.82469 8.48325 8.51719 8.89275C8.20069 9.31575 7.76344 9.53025 7.21894 9.53025H3.00019V11.0302H7.21894C8.23219 11.0302 9.11869 10.5907 9.71719 9.79275C10.2219 9.12 10.5002 8.2275 10.5002 7.28025C10.5002 5.4165 9.37294 3.53025 7.21894 3.53025H4.06069L5.03044 2.5605L3.96994 1.5L1.71994 3.75C1.42669 4.04325 1.42669 4.51725 1.71994 4.8105L3.96994 7.0605Z"
		fill="white" />
</svg>
	