<svg width="16" height="16" xmlns="http://www.w3.org/2000/svg" fill="none">

 <g>
  <title>Layer 1</title>
  <path id="svg_1" fill="#D4D7D6" d="m14.74779,3.283c0.1423,0.46222 0.2134,0.94222 0.2134,1.44c0,0.49777 -0.1067,0.97777 -0.32,1.44c-0.1778,0.46222 -0.4445,0.88889 -0.8,1.28c-0.3556,0.35555 -0.7645,0.64 -1.2267,0.85333c-0.4622,0.17778 -0.9422,0.26667 -1.44,0.26667c-0.4978,0 -0.9778,-0.10667 -1.44,-0.32c-0.92444,0.96 -1.99111,2.02666 -3.2,3.20003c-1.28,1.3155 -2.29333,2.3111 -3.04,2.9866c-0.24889,0.2489 -0.53333,0.3734 -0.85333,0.3734c-0.17778,0 -0.35556,-0.0356 -0.53334,-0.1067c-0.14222,-0.1067 -0.28444,-0.2311 -0.42666,-0.3733c-0.28445,-0.2489 -0.44445,-0.5511 -0.48,-0.9067c0,-0.3911 0.10666,-0.7289 0.32,-1.0133c2.02666,-2.09781 4.07111,-4.17781 6.13333,-6.24003c-0.17778,-0.46223 -0.26667,-0.94223 -0.26667,-1.44c0,-0.53334 0.08889,-1.03111 0.26667,-1.49334c0.21333,-0.49777 0.49778,-0.92444 0.85333,-1.28c0.35556,-0.35555 0.76445,-0.62222 1.22667,-0.8c0.4622,-0.21333 0.9244,-0.32 1.3867,-0.32c0.4977,0 0.9777,0.07111 1.44,0.21334l0.16,0.8l-2.08,2.13333l1.2266,1.22667l2.08,-2.08l0.8,0.16zm-11.83997,10.45333c1.38667,-1.3156 3.37778,-3.30667 5.97334,-5.97333c-0.14223,-0.10667 -0.26667,-0.21334 -0.37334,-0.32c-0.10666,-0.14223 -0.21333,-0.28445 -0.32,-0.42667c-2.48889,2.48889 -4.48,4.5156 -5.97333,6.08c-0.03556,0.0711 -0.03556,0.16 0,0.2667c0.03556,0.1066 0.07111,0.1955 0.10667,0.2666c0.07111,0.0711 0.12444,0.1245 0.16,0.16c0.03555,0 0.08889,0 0.16,0l0.10666,0c0.07111,0 0.12445,-0.0177 0.16,-0.0533zm11.09337,-9.06667l0,-0.26666l-1.8134,1.81333l-0.6933,0l-1.86667,-1.86667l0,-0.69333l1.81337,-1.86667l-0.2667,0c-0.3556,0 -0.7111,0.07111 -1.0667,0.21334c-0.35552,0.14222 -0.67552,0.35555 -0.95997,0.64c-0.24889,0.28444 -0.44444,0.60444 -0.58666,0.96c-0.21334,0.53333 -0.26667,1.08444 -0.16,1.65333c0.10666,0.56889 0.37333,1.06667 0.8,1.49333c0.53333,0.53334 1.19113,0.8 1.97333,0.8c0.7822,0 1.4578,-0.26666 2.0267,-0.8c0.5689,-0.56889 0.8355,-1.26222 0.8,-2.08zm-10.77337,1.81334l-0.42666,-0.21334l-1.86667,-2.88l0.10667,-0.64l0.8,-0.8l0.58666,-0.10666l2.88,1.92l0.21334,0.42666l-0.05334,1.65334l0.64,0.69333l-0.64,0.69333l-0.74666,-0.74666l-1.49334,0zm-0.96,-3.62667l-0.26666,0.32l1.49333,2.34667l1.06667,0l0,-1.12l-2.29334,-1.54667zm7.09334,6.98667l3.14663,3.20003c0.0356,0.0355 0.0534,0.0889 0.0534,0.16c0.0355,0.0355 0.0533,0.0889 0.0533,0.16c0,0.0711 -0.0178,0.1422 -0.0533,0.2133c0,0.0356 -0.0178,0.0889 -0.0534,0.16c-0.0355,0.0356 -0.1066,0.0711 -0.2133,0.1067c-0.0711,0.0355 -0.16,0.0355 -0.2667,0c-0.0711,-0.0356 -0.1422,-0.0889 -0.2133,-0.16l-3.09333,-3.20003l-0.69334,0.69333l3.14667,3.2c0.1067,0.1422 0.2489,0.2489 0.4267,0.32c0.2844,0.1067 0.5511,0.1422 0.8,0.1067c0.2844,-0.0711 0.5333,-0.2134 0.7466,-0.4267c0.2845,-0.2844 0.4267,-0.6222 0.4267,-1.0133c0,-0.3911 -0.1422,-0.7289 -0.4267,-1.0134l-3.0933,-3.19997l-0.69333,0.69334z"/>
 </g>
</svg>