<svg width="12" height="13" viewBox="0 0 12 13" fill="none" xmlns="http://www.w3.org/2000/svg">
<path d="M8.02667 1.98667H11.0133V3H10V12.0133L8.98667 12.9733H2L0.986667 12.0133V3H0.0266666V1.98667H3.01333V0.973333C3.01333 0.724444 3.10222 0.511111 3.28 0.333333C3.49333 0.12 3.74222 0.0133333 4.02667 0.0133333H7.01333C7.29778 0.0133333 7.52889 0.12 7.70667 0.333333C7.92 0.511111 8.02667 0.724444 8.02667 0.973333V1.98667ZM7.01333 0.973333H4.02667V1.98667H7.01333V0.973333ZM2 12.0133H8.98667V3H2V12.0133ZM4.02667 4.01333H3.01333V11H4.02667V4.01333ZM4.98667 4.01333H6V11H4.98667V4.01333ZM7.01333 4.01333H8.02667V11H7.01333V4.01333Z" fill="#C5C5C5"/>
</svg>
