<svg width="13" height="13" xmlns="http://www.w3.org/2000/svg" fill="none">
 <g>
  <title>Layer 1</title>
  <path stroke="null" d="m9.03717,2.13894l2.8203,0l0,0.9569l-0.95687,0l0,8.51135l-0.9569,0.90654l-6.59758,0l-0.9569,-0.90654l0,-8.51135l-0.90654,0l0,-0.9569l2.82033,0l0,-0.95691c0,-0.23503 0.08394,-0.43648 0.25182,-0.60436c0.20145,-0.20145 0.43648,-0.30218 0.70509,-0.30218l2.82033,0c0.26861,0 0.48685,0.10073 0.65473,0.30218c0.20145,0.16788 0.30218,0.36933 0.30218,0.60436l0,0.95691zm-0.95691,-0.95691l-2.82033,0l0,0.95691l2.82033,0l0,-0.95691zm-4.73414,10.42515l6.59758,0l0,-8.51135l-6.59758,0l0,8.51135zm1.9138,-7.55445l-0.95691,0l0,6.59758l0.95691,0l0,-6.59758zm0.90654,0l0.9569,0l0,6.59758l-0.9569,0l0,-6.59758zm1.91379,0l0.95691,0l0,6.59758l-0.95691,0l0,-6.59758z" fill="#000000" id="svg_1"/>
 </g>

</svg>