<svg width="13" height="13" viewBox="0 0 13 13" fill="none" xmlns="http://www.w3.org/2000/svg">
<path d="M4.29333 0.433336L5.04 1.18L1.89333 4.27334H3.70667C5.16444 4.27334 6.42667 4.45111 7.49333 4.80667C8.56 5.12667 9.43111 5.62445 10.1067 6.3C10.7822 6.97556 11.2622 7.82889 11.5467 8.86C11.8667 9.85556 12.0267 11.0467 12.0267 12.4333V12.7533H11.0133V12.4333C11.0133 9.90889 10.48 8.09556 9.41333 6.99334C8.84444 6.42445 8.09778 5.99778 7.17333 5.71334C6.24889 5.42889 5.09333 5.28667 3.70667 5.28667H1.78667L5.04 8.48667L4.29333 9.18L0.293333 5.18V4.48667L4.29333 0.433336Z" fill="#808080"/>
</svg>
